<svg width="47" height="47" viewBox="0 0 47 47" fill="none" xmlns="http://www.w3.org/2000/svg">
<path d="M26.7248 44.8877L45.8676 25.7449C47.3775 24.2351 47.3775 21.7864 45.8676 20.2766C44.3578 18.7668 41.9091 18.7668 40.3993 20.2766L23.9926 36.6834L7.58595 20.2766C6.07613 18.7668 3.62746 18.7668 2.11764 20.2766C0.60783 21.7864 0.60783 24.2351 2.11764 25.7449L21.2604 44.8877C22.7664 46.3975 25.215 46.3975 26.7248 44.8877ZM27.884 21.8707L43.9018 6.67304C45.5093 5.14593 45.5093 2.67244 43.9018 1.14533C42.2943 -0.381777 39.6866 -0.381777 38.0771 1.14533L24.9717 13.5802L11.8663 1.14533C10.2587 -0.381777 7.64919 -0.381777 6.04162 1.14533C4.43406 2.67244 4.43406 5.14593 6.04162 6.67304L22.0594 21.8707C23.6669 23.3978 26.2746 23.3978 27.884 21.8707Z" fill="#8E0E45"/>
</svg>
