<svg width="32" height="31" viewBox="0 0 32 31" fill="none" xmlns="http://www.w3.org/2000/svg">
<path d="M30.2921 18.7083C32.4915 8.82678 23.8336 -0.150335 13.666 1.57296C8.14646 -1.85197 0.796875 2.0187 0.796875 8.5851C0.796875 10.1123 1.21829 11.5419 1.95093 12.7742C-0.092705 22.6789 8.63589 31.5265 18.7948 29.6857C25.9761 33.4827 33.9112 25.9101 30.2921 18.7083ZM20.6272 24.6678C17.9596 25.7649 13.5698 25.771 10.914 24.3806C7.12653 22.3612 6.45356 17.8153 9.7208 17.8153C12.1832 17.8153 11.4038 20.6862 13.8902 21.8566C15.0317 22.384 17.4853 22.4388 18.9115 21.477C20.3198 20.5342 20.1909 19.0514 19.4252 18.3431C17.3968 16.4705 11.5923 17.2145 8.93876 13.9363C7.78584 12.5143 7.56847 10.0052 8.98549 8.18573C11.4555 5.0074 18.704 4.81398 21.8204 7.21406C24.6977 9.44086 23.921 12.3965 21.5988 12.3965C18.8062 12.3965 20.2738 8.74242 15.7655 8.74242C12.4971 8.74242 11.2112 11.0665 13.5132 12.1978C16.6338 13.7478 24.5856 13.2302 24.5856 19.287C24.5788 21.8068 23.0337 23.6859 20.6272 24.6678Z" fill="white"/>
</svg>
