<svg width="65" height="65" viewBox="0 0 65 65" fill="none" xmlns="http://www.w3.org/2000/svg">
<path d="M48.1171 42.2312V19.0206C48.1161 18.1444 47.7676 17.3044 47.148 16.6849C46.5285 16.0653 45.6885 15.7168 44.8123 15.7158H14.1799C13.3037 15.7168 12.4637 16.0653 11.8442 16.6849C11.2246 17.3044 10.8761 18.1444 10.8751 19.0206C10.8757 24.5731 10.8747 36.7849 10.8751 42.2312C10.8761 43.1074 11.2245 43.9475 11.8441 44.5671C12.4636 45.1867 13.3036 45.5353 14.1799 45.5364H44.8123C45.6885 45.5353 46.5285 45.1867 47.1481 44.5671C47.7676 43.9475 48.1161 43.1074 48.1171 42.2312ZM14.1799 17.7471H44.8123C45.1499 17.7475 45.4736 17.8818 45.7124 18.1205C45.9511 18.3592 46.0854 18.6829 46.0858 19.0206V35.9607L39.6102 29.5046C39.4666 29.3613 39.2834 29.2643 39.0841 29.2261C38.8849 29.1879 38.6788 29.2103 38.4924 29.2904L30.5624 32.6942L24.9164 27.0658C24.7727 26.9226 24.5895 26.8257 24.3903 26.7876C24.1911 26.7494 23.985 26.7717 23.7986 26.8515L12.9064 31.5239V19.0206C12.9067 18.6829 13.041 18.3592 13.2798 18.1205C13.5185 17.8818 13.8423 17.7475 14.1799 17.7471ZM12.9064 42.2312V33.7343L23.9682 28.9889C26.1584 31.1749 31.0374 36.0338 33.1802 38.1717C33.3722 38.3558 33.6286 38.4572 33.8946 38.4543C34.1605 38.4513 34.4147 38.3441 34.6025 38.1558C34.7903 37.9675 34.8967 37.713 34.8989 37.4471C34.9011 37.1811 34.7989 36.9249 34.6143 36.7335L32.1124 34.2394L38.662 31.4278L46.0858 38.8286V42.2312C46.0855 42.5689 45.9513 42.8927 45.7125 43.1315C45.4737 43.3704 45.15 43.5047 44.8123 43.5052H14.1799C13.8422 43.5048 13.5184 43.3704 13.2797 43.1316C13.0409 42.8927 12.9066 42.5689 12.9064 42.2312Z" fill="#EE4C01"/>
<path d="M33.9996 26.6067C34.8724 26.5989 35.7068 26.2467 36.3212 25.6268C36.9356 25.0068 37.2803 24.1693 37.2803 23.2965C37.2803 22.4236 36.9355 21.5861 36.3211 20.9662C35.7067 20.3463 34.8723 19.9941 33.9995 19.9863C33.1267 19.9941 32.2923 20.3463 31.6779 20.9663C31.0634 21.5862 30.7187 22.4237 30.7188 23.2966C30.7188 24.1694 31.0635 25.0069 31.6779 25.6269C32.2924 26.2468 33.1268 26.599 33.9996 26.6067ZM33.9996 22.0176C34.3369 22.0204 34.6594 22.1564 34.897 22.396C35.1345 22.6355 35.2677 22.9592 35.2677 23.2966C35.2677 23.6339 35.1344 23.9576 34.8969 24.1971C34.6594 24.4366 34.3368 24.5726 33.9995 24.5755C33.6622 24.5726 33.3397 24.4366 33.1021 24.1971C32.8646 23.9575 32.7314 23.6338 32.7314 23.2965C32.7314 22.9592 32.8646 22.6355 33.1022 22.396C33.3397 22.1564 33.6622 22.0204 33.9996 22.0176Z" fill="#EE4C01"/>
<path d="M13.0069 49.2476C12.718 49.2507 12.4421 49.3677 12.2389 49.5731C12.0358 49.7784 11.9219 50.0556 11.9219 50.3445C11.9219 50.6334 12.0358 50.9106 12.2389 51.1159C12.4421 51.3213 12.718 51.4383 13.0069 51.4415C13.2957 51.4383 13.5716 51.3213 13.7748 51.1159C13.9779 50.9106 14.0918 50.6334 14.0918 50.3445C14.0918 50.0556 13.9779 49.7784 13.7748 49.5731C13.5716 49.3677 13.2957 49.2507 13.0069 49.2476Z" fill="#EE4C01"/>
<path d="M17.3897 49.2476C17.1008 49.2507 16.8249 49.3677 16.6218 49.5731C16.4186 49.7784 16.3047 50.0556 16.3047 50.3445C16.3047 50.6334 16.4186 50.9106 16.6218 51.1159C16.8249 51.3213 17.1008 51.4383 17.3897 51.4415C17.6785 51.4383 17.9545 51.3213 18.1576 51.1159C18.3607 50.9106 18.4747 50.6334 18.4747 50.3445C18.4747 50.0556 18.3607 49.7784 18.1576 49.5731C17.9545 49.3677 17.6785 49.2507 17.3897 49.2476Z" fill="#EE4C01"/>
<path d="M21.7725 49.2476C21.4836 49.2507 21.2077 49.3677 21.0046 49.5731C20.8014 49.7784 20.6875 50.0556 20.6875 50.3445C20.6875 50.6334 20.8014 50.9106 21.0046 51.1159C21.2077 51.3213 21.4836 51.4383 21.7725 51.4415C22.0613 51.4383 22.3373 51.3213 22.5404 51.1159C22.7435 50.9106 22.8575 50.6334 22.8575 50.3445C22.8575 50.0556 22.7435 49.7784 22.5404 49.5731C22.3373 49.3677 22.0613 49.2507 21.7725 49.2476Z" fill="#EE4C01"/>
<path d="M28.4131 12.0044C28.702 12.0013 28.9779 11.8843 29.181 11.6789C29.3842 11.4736 29.4981 11.1964 29.4981 10.9075C29.4981 10.6186 29.3842 10.3414 29.181 10.1361C28.9779 9.93068 28.702 9.81372 28.4131 9.81055C28.1243 9.81372 27.8483 9.93068 27.6452 10.1361C27.4421 10.3414 27.3281 10.6186 27.3281 10.9075C27.3281 11.1964 27.4421 11.4736 27.6452 11.6789C27.8483 11.8843 28.1243 12.0013 28.4131 12.0044Z" fill="#EE4C01"/>
<path d="M13.0116 11.9233H22.8753C23.1412 11.9181 23.3945 11.8089 23.5807 11.619C23.767 11.429 23.8713 11.1737 23.8713 10.9077C23.8713 10.6417 23.7669 10.3863 23.5807 10.1964C23.3945 10.0065 23.1412 9.89727 22.8752 9.89209H13.0116C12.7457 9.89727 12.4924 10.0066 12.3062 10.1965C12.1199 10.3864 12.0156 10.6417 12.0156 10.9077C12.0156 11.1737 12.1199 11.4291 12.3062 11.619C12.4924 11.8089 12.7457 11.9182 13.0116 11.9233Z" fill="#EE4C01"/>
<path d="M53.8832 44.5514V7.26112C53.883 6.41371 53.5466 5.60098 52.9479 5.00131C52.3491 4.40163 51.5369 4.064 50.6895 4.0625H8.30402C7.45651 4.06396 6.64418 4.40155 6.04527 5.0012C5.44636 5.60086 5.10978 6.4136 5.10938 7.26112V53.9908C5.10978 54.8383 5.44636 55.651 6.04527 56.2507C6.64418 56.8504 7.45651 57.188 8.30402 57.1894H44.5148C49.0235 64 59.8591 60.8734 59.8936 52.5703C59.8892 50.7646 59.3018 49.0086 58.2188 47.5637C57.1358 46.1188 55.6151 45.0622 53.8832 44.5514ZM8.30402 55.1582C7.99504 55.1573 7.69901 55.0339 7.4809 54.8151C7.26279 54.5962 7.14041 54.2998 7.14062 53.9908V7.26112C7.14042 6.95214 7.2628 6.65569 7.48091 6.43684C7.69902 6.21798 7.99504 6.09459 8.30402 6.09375H50.6895C50.9983 6.0948 51.2941 6.21828 51.5121 6.43712C51.73 6.65596 51.8522 6.95229 51.8519 7.26112V44.2211C51.7356 44.2163 51.6214 44.2035 51.5038 44.2035C49.2825 44.2031 47.1517 45.0837 45.5789 46.6523C44.006 48.2208 43.1196 50.3492 43.114 52.5705C43.1146 53.4496 43.2549 54.323 43.5294 55.1582H8.30402ZM51.5038 58.9062C49.821 58.9074 48.2065 58.241 47.0145 57.0532C45.8224 55.8654 45.1502 54.2533 45.1453 52.5705C45.4434 44.1852 57.5656 44.1874 57.8624 52.5706C57.8575 54.2534 57.1852 55.8655 55.9932 57.0532C54.8011 58.241 53.1866 58.9074 51.5038 58.9062Z" fill="#EE4C01"/>
<path d="M52.2213 47.9618C52.1272 47.8669 52.0154 47.7914 51.8921 47.7397C51.7688 47.688 51.6365 47.6612 51.5029 47.6607C51.3692 47.6601 51.2367 47.686 51.1131 47.7368C50.9894 47.7875 50.8769 47.8621 50.7822 47.9564L47.5042 51.2239C47.3192 51.4153 47.2167 51.6716 47.2188 51.9378C47.2209 52.2039 47.3273 52.4586 47.5153 52.6471C47.7032 52.8356 47.9576 52.9427 48.2238 52.9455C48.4899 52.9483 48.7465 52.8465 48.9384 52.662L50.4837 51.1218V56.4647C50.4889 56.7307 50.5981 56.9839 50.7881 57.1702C50.978 57.3564 51.2333 57.4607 51.4993 57.4607C51.7653 57.4607 52.0207 57.3564 52.2106 57.1701C52.4005 56.9839 52.5097 56.7306 52.5149 56.4647V51.1223L54.0592 52.6621C54.25 52.8518 54.5083 52.958 54.7773 52.9574C55.0464 52.9569 55.3042 52.8495 55.4942 52.659C55.6842 52.4685 55.7908 52.2104 55.7907 51.9413C55.7905 51.6722 55.6836 51.4142 55.4934 51.224L52.2213 47.9618Z" fill="#EE4C01"/>
</svg>
