<svg width="65" height="65" viewBox="0 0 65 65" fill="none" xmlns="http://www.w3.org/2000/svg">
<path d="M51.9251 60.9382H49.7656V62.9695H52.7823C53.0221 62.9694 53.2541 62.8846 53.4373 62.73C53.6205 62.5753 53.7432 62.3608 53.7834 62.1245L61.3971 17.437L59.3946 17.0957L51.9251 60.9382Z" fill="#EE4C01"/>
<path d="M62.1261 7.12465L49.9386 4.97559L49.5859 6.97599L60.779 8.94998L59.7374 15.0639L61.7397 15.4052L62.9509 8.29579C62.9961 8.03121 62.9347 7.7595 62.7802 7.54004C62.6256 7.32059 62.3905 7.17125 62.1261 7.12465Z" fill="#EE4C01"/>
<path d="M46.7188 2.03125H3.04688C2.77751 2.03125 2.51919 2.13825 2.32872 2.32872C2.13825 2.51919 2.03125 2.77751 2.03125 3.04688V44.6875H4.0625V4.0625H45.7031V60.9375H4.0625V46.7188H2.03125V61.9531C2.03125 62.2225 2.13825 62.4808 2.32872 62.6713C2.51919 62.8617 2.77751 62.9688 3.04688 62.9688H46.7188C46.9881 62.9688 47.2464 62.8617 47.4369 62.6713C47.6274 62.4808 47.7344 62.2225 47.7344 61.9531V3.04688C47.7344 2.77751 47.6274 2.51919 47.4369 2.32872C47.2464 2.13825 46.9881 2.03125 46.7188 2.03125Z" fill="#EE4C01"/>
<path d="M11.8895 35.8442L10.4531 37.2806L13.5 40.3275C13.5943 40.4218 13.7063 40.4966 13.8295 40.5476C13.9527 40.5987 14.0848 40.6249 14.2182 40.6249C14.2309 40.6249 14.2436 40.6249 14.2571 40.6241C14.397 40.6188 14.5342 40.5846 14.6602 40.5237C14.7862 40.4628 14.8982 40.3766 14.9893 40.2703L21.083 33.161L19.5408 31.8389L14.1608 38.1156L11.8895 35.8442Z" fill="#EE4C01"/>
<path d="M7.10938 40.1172C7.11045 41.0596 7.48531 41.9631 8.15171 42.6295C8.81811 43.2959 9.72163 43.6708 10.6641 43.6719H15.7422C16.6846 43.6708 17.5881 43.2959 18.2545 42.6295C18.9209 41.9631 19.2958 41.0596 19.2969 40.1172V39.6094H17.2656V40.1172C17.2652 40.5211 17.1045 40.9083 16.8189 41.1939C16.5333 41.4795 16.1461 41.6402 15.7422 41.6406H10.6641C10.2602 41.6402 9.87292 41.4795 9.58731 41.1939C9.30171 40.9083 9.14106 40.5211 9.14062 40.1172V35.0391C9.14106 34.6352 9.30171 34.2479 9.58731 33.9623C9.87292 33.6767 10.2602 33.5161 10.6641 33.5156H15.2344V31.4844H10.6641C9.72163 31.4855 8.81811 31.8603 8.15171 32.5267C7.48531 33.1931 7.11045 34.0966 7.10938 35.0391V40.1172Z" fill="#EE4C01"/>
<path d="M11.8895 51.0786L10.4531 52.515L13.5 55.5618C13.5943 55.6561 13.7063 55.731 13.8295 55.782C13.9527 55.833 14.0848 55.8593 14.2182 55.8593C14.2309 55.8593 14.2436 55.8593 14.2571 55.8585C14.397 55.8532 14.5342 55.819 14.6602 55.7581C14.7862 55.6972 14.8982 55.6109 14.9893 55.5047L21.083 48.3953L19.5408 47.0732L14.1608 53.3499L11.8895 51.0786Z" fill="#EE4C01"/>
<path d="M7.10938 55.3516C7.11045 56.294 7.48531 57.1975 8.15171 57.8639C8.81811 58.5303 9.72163 58.9052 10.6641 58.9062H15.7422C16.6846 58.9052 17.5881 58.5303 18.2545 57.8639C18.9209 57.1975 19.2958 56.294 19.2969 55.3516V54.8438H17.2656V55.3516C17.2652 55.7555 17.1045 56.1427 16.8189 56.4283C16.5333 56.7139 16.1461 56.8746 15.7422 56.875H10.6641C10.2602 56.8746 9.87292 56.7139 9.58731 56.4283C9.30171 56.1427 9.14106 55.7555 9.14062 55.3516V50.2734C9.14106 49.8695 9.30171 49.4823 9.58731 49.1967C9.87292 48.9111 10.2602 48.7504 10.6641 48.75H15.2344V46.7188H10.6641C9.72163 46.7198 8.81811 47.0947 8.15171 47.7611C7.48531 48.4275 7.11045 49.331 7.10938 50.2734V55.3516Z" fill="#EE4C01"/>
<path d="M23.3594 46.7188H38.5938V48.75H23.3594V46.7188Z" fill="#EE4C01"/>
<path d="M23.3594 51.7969H28.4375V53.8281H23.3594V51.7969Z" fill="#EE4C01"/>
<path d="M30.4688 51.7969H38.5938V53.8281H30.4688V51.7969Z" fill="#EE4C01"/>
<path d="M23.3594 31.4844H38.5938V33.5156H23.3594V31.4844Z" fill="#EE4C01"/>
<path d="M23.3594 36.5625H28.4375V38.5938H23.3594V36.5625Z" fill="#EE4C01"/>
<path d="M30.4688 36.5625H38.5938V38.5938H30.4688V36.5625Z" fill="#EE4C01"/>
<path d="M34.9194 10.252L25.7915 6.18179C25.6613 6.12375 25.5204 6.09375 25.3779 6.09375C25.2353 6.09375 25.0944 6.12375 24.9642 6.18179L15.8363 10.252C15.6324 10.343 15.4641 10.4986 15.3575 10.6949C15.2509 10.8911 15.212 11.117 15.2467 11.3376L16.0076 16.1683C16.0088 16.1762 16.0101 16.1842 16.0116 16.192C16.7823 20.3785 19.1295 24.1099 22.5697 26.6171L24.7838 28.2478C24.9575 28.3756 25.1673 28.4449 25.383 28.4456C25.5986 28.4462 25.8089 28.3783 25.9833 28.2514L28.0928 26.718C31.5786 24.2119 33.9594 20.454 34.7363 16.2317C34.7377 16.2238 34.7391 16.2159 34.7403 16.208L35.5087 11.338C35.5436 11.1174 35.5047 10.8914 35.3982 10.6951C35.2917 10.4988 35.1234 10.3431 34.9194 10.252ZM32.7358 15.8797C32.0493 19.5832 29.9577 22.8778 26.8984 25.075L25.3906 26.1714L23.7748 24.9815C20.7559 22.7836 18.6939 19.5125 18.0127 15.8409L17.3747 11.7911L25.3779 8.22142L33.3812 11.7902L32.7358 15.8797Z" fill="#EE4C01"/>
<path d="M22.0222 15.5391L20.5859 16.9753L23.6328 20.0222C23.8233 20.2126 24.0816 20.3196 24.3509 20.3196C24.6203 20.3196 24.8786 20.2126 25.069 20.0222L31.1628 13.9284L29.7266 12.4922L24.351 17.8683L22.0222 15.5391Z" fill="#EE4C01"/>
<path d="M7.10938 6.09375H13.2031V8.125H7.10938V6.09375Z" fill="#EE4C01"/>
<path d="M7.10938 10.1562H11.1719V12.1875H7.10938V10.1562Z" fill="#EE4C01"/>
<path d="M37.5781 6.09375H39.6094V8.125H37.5781V6.09375Z" fill="#EE4C01"/>
<path d="M41.6406 6.09375H43.6719V8.125H41.6406V6.09375Z" fill="#EE4C01"/>
</svg>
