<svg width="65" height="65" viewBox="0 0 65 65" fill="none" xmlns="http://www.w3.org/2000/svg">
<g clip-path="url(#clip0_2813_499)">
<path d="M55.8666 0H53.072C51.8435 0 51.8435 1.90457 53.072 1.90457H55.8666C58.7527 1.90457 61.1008 4.24415 61.1008 7.1198V29.1585C61.1008 32.0343 58.7528 34.3738 55.8666 34.3738H52.697C52.4879 34.3738 52.2846 34.4427 52.1184 34.5698L46.3024 39.0186V35.3261C46.3024 34.8002 45.8761 34.3738 45.3501 34.3738H33.7601C32.811 34.3738 31.8989 34.1233 31.0944 33.6471V22.9571C31.0944 20.9547 30.0745 19.1856 28.5259 18.139V7.1198C28.5259 4.24415 30.874 1.90457 33.7601 1.90457H47.1043C48.3327 1.90457 48.3327 0 47.1043 0H33.7601C29.8238 0 26.6213 3.19397 26.6213 7.1198V17.302C26.1853 17.1979 25.731 17.1411 25.2635 17.1411H7.83078C4.61574 17.1411 2 19.7502 2 22.9571V25.0134C2 26.2417 3.90457 26.2417 3.90457 25.0134V22.9571C3.90457 20.8003 5.66579 19.0457 7.83078 19.0457H25.2636C27.4286 19.0457 29.1899 20.8003 29.1899 22.9571V34.0262C29.1785 34.1103 29.179 34.1949 29.1899 34.2784V40.3364C29.1899 40.4562 29.1827 40.5754 29.1719 40.694H27.208C25.0441 40.694 23.24 42.2559 22.866 44.3086C22.7794 44.3412 22.6962 44.3868 22.6192 44.4462L18.3599 47.7349V45.2001C18.3599 44.6742 17.9337 44.2478 17.4076 44.2478H7.83078C5.66579 44.2478 3.90457 42.4932 3.90457 40.3364V30.7271C3.90457 29.4988 2 29.4988 2 30.7271V40.3366C2 43.5435 4.61574 46.1525 7.83078 46.1525H16.4554V49.6734C16.4554 50.4373 17.383 50.8955 17.9898 50.4272L22.7937 46.718V57.4312C22.7937 59.8596 24.7741 61.835 27.2082 61.835H33.052V64.0571C33.052 64.8207 33.9795 65.2795 34.5862 64.8109L38.4406 61.835H39.5792C42.0133 61.835 43.9937 59.8594 43.9937 57.4312V55.7405C43.9937 54.5122 42.0891 54.5122 42.0891 55.7405V57.4312C42.0891 58.8094 40.9632 59.9304 39.5792 59.9304H38.1156C37.905 59.9304 37.7003 60.0002 37.5337 60.1289L34.9565 62.1186V60.8826C34.9565 60.3567 34.5302 59.9303 34.0042 59.9303H27.208C25.8242 59.9303 24.6982 58.8091 24.6982 57.4311V45.0979C24.6982 43.7197 25.824 42.5987 27.208 42.5987H39.5792C40.9631 42.5987 42.0891 43.7198 42.0891 45.0979V49.7728C42.0891 51.0011 43.9937 51.0011 43.9937 49.7728V45.098C43.9937 42.6697 42.0133 40.6942 39.5792 40.6942H31.0836C31.0908 40.5753 31.0945 35.7655 31.0945 35.7655C31.9342 36.1031 32.8344 36.2785 33.7603 36.2785H44.3979V40.946C44.3979 41.708 45.3215 42.1667 45.9288 41.7024L53.0197 36.2785H55.8668C59.803 36.2785 63.0055 33.0846 63.0055 29.1586V7.1198C63.0054 3.19397 59.8029 0 55.8666 0Z" fill="#EE4C01"/>
<path d="M47.1888 7.03592C45.9796 6.72725 44.7475 7.68259 44.7475 8.93199C44.7475 10.2971 44.25 11.6126 43.3474 12.6356L40.7236 15.6046C40.5538 15.3439 40.2602 15.1714 39.9259 15.1714H34.8038C34.2778 15.1714 33.8516 15.5977 33.8516 16.1237V27.6482C33.8516 28.1741 34.2778 28.6005 34.8038 28.6005H39.9259C40.3107 28.6005 40.6414 28.3718 40.7916 28.0435C41.8285 28.6771 43.0302 29.0196 44.2528 29.0196H53.3049C54.6881 29.0196 55.8292 27.8194 55.7643 26.4397C55.7355 25.8287 55.767 17.6247 55.767 17.4425C55.767 16.0849 54.6624 14.9803 53.3077 14.9803L48.6004 14.9662L48.7953 14.5046C49.686 12.3953 49.5394 9.94928 48.4035 7.96129C48.1384 7.49683 47.7068 7.16835 47.1888 7.03592C47.7068 7.16835 46.6705 6.90362 47.1888 7.03592C47.7068 7.16835 45.9798 6.72725 47.1888 7.03592ZM38.9736 26.6959H35.7561V17.0759H38.9736V26.6959ZM53.3049 16.8847C53.6124 16.8847 53.8625 17.1349 53.8625 17.4424C53.8625 17.6236 53.8606 18.1153 53.8581 18.7821C53.844 22.4632 53.8346 25.9496 53.8618 26.5291C53.8717 26.7382 53.77 26.8776 53.7085 26.9421C53.6021 27.0536 53.4588 27.1149 53.3049 27.1149H44.2528C43.1738 27.1149 42.1178 26.741 41.279 26.0621L40.8782 25.7376V18.3058L44.775 13.8962C45.9855 12.5244 46.6521 10.7614 46.6521 8.93186C46.6521 8.87802 46.7256 8.86406 46.75 8.90596C47.5933 10.3817 47.702 12.1976 47.0409 13.7635L46.2893 15.5435C46.1653 15.8372 46.1965 16.1733 46.3721 16.4392C46.5479 16.7051 46.8451 16.8653 47.1636 16.8663L53.3049 16.8847Z" fill="#EE4C01"/>
<path d="M10.1476 33.0753C9.62156 33.0753 9.19531 33.5017 9.19531 34.0276C9.19531 34.5535 9.62156 34.9799 10.1476 34.9799H12.9547L12.4303 38.1515C12.3445 38.6703 12.6957 39.1606 13.2145 39.2464C13.2672 39.2552 13.3193 39.2594 13.3709 39.2594C13.8285 39.2594 14.2321 38.9286 14.3093 38.4622L14.885 34.98H17.1823L16.6579 38.1517C16.5721 38.6705 16.9233 39.1607 17.4421 39.2465C17.4948 39.2553 17.547 39.2595 17.5985 39.2595C18.0561 39.2595 18.4598 38.9287 18.537 38.4624L19.1127 34.9802H22.9336C23.4597 34.9802 23.8859 34.5538 23.8859 34.0279C23.8859 33.502 23.4597 33.0756 22.9336 33.0756H19.4276L19.8117 30.7525H22.9336C23.4597 30.7525 23.8859 30.3262 23.8859 29.8002C23.8859 29.2743 23.4597 28.848 22.9336 28.848H20.1265L20.6509 25.6763C20.7368 25.1575 20.3856 24.6673 19.8668 24.5815C19.3473 24.4954 18.8577 24.8468 18.7719 25.3656L18.1962 28.8478H15.8989L16.4233 25.6762C16.5091 25.1574 16.1579 24.6672 15.6391 24.5813C15.119 24.4952 14.6302 24.8467 14.5442 25.3655L13.9686 28.8477H10.1476C9.62156 28.8477 9.19531 29.2741 9.19531 29.8C9.19531 30.3259 9.62156 30.7523 10.1476 30.7523H13.6537L13.2696 33.0753H10.1476ZM15.5841 30.7523H17.8814L17.4973 33.0753H15.2L15.5841 30.7523Z" fill="#EE4C01"/>
<path d="M33.382 47.5119C32.6131 46.8789 31.5901 46.6291 30.5639 46.8786C29.2489 47.1979 27.9219 48.4273 27.9219 50.4536C27.9219 51.7148 28.3821 52.8096 29.329 53.8005C30.1024 54.6099 31.2184 55.3796 32.9475 56.2963C33.0871 56.3704 33.2403 56.4073 33.3936 56.4073C33.5468 56.4073 33.7001 56.3704 33.8396 56.2963C36.8562 54.6971 38.8652 53.0916 38.8652 50.4536C38.8652 48.4162 37.4911 47.1995 36.1292 46.8974C35.106 46.6704 34.1142 46.9114 33.382 47.5119ZM36.9605 50.4536C36.9605 51.8765 36.0167 52.9287 33.3935 54.3727C30.7702 52.9285 29.8263 51.8763 29.8263 50.4536C29.8263 49.3949 30.4393 48.8688 31.0131 48.7293C31.1189 48.7037 31.2321 48.6892 31.3486 48.6892C31.7802 48.6892 32.2547 48.8886 32.5472 49.4557C32.7139 49.7785 33.0509 49.9786 33.4124 49.9711C33.7754 49.9639 34.1028 49.7508 34.2564 49.4217C34.5645 48.7612 35.2126 48.645 35.7164 48.7569C36.318 48.8901 36.9605 49.406 36.9605 50.4536Z" fill="#EE4C01"/>
</g>
<defs>
<clipPath id="clip0_2813_499">
<rect width="65" height="65" fill="white"/>
</clipPath>
</defs>
</svg>
