<svg width="61" height="58" viewBox="0 0 61 58" fill="none" xmlns="http://www.w3.org/2000/svg">
<path d="M59.7708 23.9038L57.8028 22.8373C57.6531 22.7562 57.5717 22.5858 57.6002 22.4134C57.7332 21.6077 57.8008 20.7829 57.8008 19.962C57.8008 19.141 57.7332 18.3163 57.6002 17.5108C57.5716 17.3383 57.6531 17.1679 57.8028 17.0868L59.7708 16.0204C60.3124 15.727 60.7072 15.2403 60.8825 14.6498C61.058 14.0595 60.993 13.436 60.6996 12.8947L58.5127 8.8591C57.9069 7.74141 56.5047 7.32487 55.387 7.93057L53.4169 8.99811C53.2674 9.07936 53.0816 9.05562 52.9552 8.93959C51.4316 7.5412 49.6725 6.49155 47.7263 5.81959C47.556 5.76081 47.4416 5.60644 47.4416 5.43556V3.19928C47.4416 1.92784 46.4072 0.893555 45.1359 0.893555H40.546C39.2747 0.893555 38.2403 1.92784 38.2403 3.19928V5.43556C38.2403 5.60644 38.1259 5.76081 37.9558 5.81959C36.0095 6.49155 34.2502 7.54133 32.7269 8.93959C32.6003 9.05575 32.4147 9.07924 32.265 8.99811L30.295 7.93044C29.1771 7.32475 27.7751 7.74153 27.1692 8.85923L24.9825 12.8947C24.6891 13.4361 24.6241 14.0595 24.7995 14.6498C24.871 14.8905 24.9807 15.1127 25.1201 15.3128H13.0012C12.4752 15.3128 12.0487 15.7391 12.0487 16.2652C12.0487 16.7911 12.4752 17.2176 13.0012 17.2176H43.1703C43.2256 17.2176 43.2707 17.2626 43.2707 17.318V22.7068H1.9203V17.3181C1.9203 17.2626 1.96537 17.2177 2.02072 17.2177H8.68373C9.2097 17.2177 9.63613 16.7914 9.63613 16.2653C9.63613 15.7393 9.2097 15.3129 8.68373 15.3129H2.02072C0.915088 15.3129 0.015625 16.2124 0.015625 17.318V23.659C0.015625 23.6658 0.0165137 23.6722 0.0166407 23.6788C0.0168946 23.6896 0.0176562 23.7002 0.018291 23.711C0.0200683 23.7449 0.0236231 23.7784 0.0289551 23.8113C0.0302247 23.8191 0.0311133 23.827 0.0325098 23.8347C0.040254 23.876 0.0504103 23.9163 0.0632325 23.9554C0.0648829 23.9606 0.067041 23.9656 0.0688183 23.9707C0.0811328 24.0061 0.0954786 24.0405 0.111729 24.0738C0.115029 24.0808 0.118203 24.0878 0.121758 24.0946C0.140801 24.1316 0.161875 24.1671 0.185488 24.2011C0.189297 24.2066 0.193613 24.2118 0.197549 24.2173C0.219258 24.2472 0.242744 24.2758 0.267754 24.3029C0.271436 24.307 0.274229 24.3116 0.278037 24.3155L17.4118 42.3186C17.5894 42.5052 17.6871 42.7499 17.6871 43.0073V52.656C17.6871 53.2371 18.0013 53.7758 18.5069 54.0617L25.0929 57.7877C25.3426 57.929 25.6157 57.9996 25.8885 57.9995C26.1684 57.9995 26.4479 57.9253 26.7019 57.7773C27.2038 57.4847 27.5034 56.9632 27.5034 56.3821V51.7413C27.5034 51.2154 27.077 50.7889 26.551 50.7889C26.025 50.7889 25.5986 51.2152 25.5986 51.7413V55.8855L19.5917 52.4871V43.0073C19.5917 42.2588 19.3074 41.5479 18.7912 41.0055L3.18895 24.6114H42.0018L40.0794 26.6315C40.0775 26.6336 40.0756 26.6356 40.0737 26.6376L26.3992 41.0059C25.8831 41.5481 25.5988 42.2591 25.5988 43.0076V47.2973C25.5988 47.8233 26.0253 48.2497 26.5512 48.2497C27.0772 48.2497 27.5036 47.8234 27.5036 47.2973V43.0076C27.5036 42.75 27.6014 42.5055 27.779 42.319L36.2667 33.4005C36.8154 33.6692 37.3805 33.9062 37.9557 34.1047C38.1259 34.1635 38.2403 34.3179 38.2403 34.4888V36.7251C38.2403 37.9965 39.2747 39.0308 40.546 39.0308H45.1359C46.4072 39.0308 47.4416 37.9965 47.4416 36.7251V34.4888C47.4416 34.3179 47.556 34.1635 47.7263 34.1047C49.6727 33.4327 51.432 32.383 52.9552 30.9847C53.0819 30.8687 53.2674 30.8454 53.4171 30.9262L55.3871 31.9939C56.5048 32.5996 57.907 32.1829 58.5128 31.0651L60.6995 27.0295C60.9929 26.4881 61.0579 25.8647 60.8824 25.2744C60.7071 24.6838 60.3123 24.1972 59.7708 23.9038ZM59.0248 26.1221L56.8381 30.1574C56.7327 30.3519 56.4889 30.4244 56.2943 30.3191L54.3245 29.2516C53.4605 28.7834 52.3925 28.9157 51.6671 29.5814C50.3376 30.8019 48.8024 31.7182 47.1046 32.3044C46.1669 32.6282 45.537 33.506 45.537 34.4888V36.7251C45.537 36.9462 45.3571 37.1261 45.1359 37.1261H40.546C40.3249 37.1261 40.145 36.9462 40.145 36.7251V34.4888C40.145 33.506 39.5151 32.6283 38.5773 32.3043C38.2655 32.1966 37.9576 32.0746 37.6538 31.943L41.0685 28.355C41.6488 28.477 42.2426 28.5386 42.841 28.5386C44.3579 28.5386 45.8491 28.1369 47.1533 27.3772C47.6077 27.1125 47.7616 26.5295 47.4967 26.075C47.2319 25.6205 46.6489 25.4671 46.1943 25.7314C45.181 26.3218 44.0215 26.6339 42.841 26.6339C42.7968 26.6339 42.7527 26.6325 42.7086 26.6316L44.9127 24.3156C44.9165 24.3117 44.9193 24.3071 44.923 24.3031C44.948 24.2759 44.9715 24.2473 44.9932 24.2174C44.9972 24.2119 45.0015 24.2067 45.0053 24.2013C45.0289 24.1674 45.05 24.1317 45.069 24.0947C45.0726 24.0879 45.0756 24.0809 45.079 24.0739C45.0953 24.0405 45.1096 24.0063 45.1219 23.9708C45.1237 23.9656 45.1259 23.9607 45.1275 23.9555C45.1404 23.9164 45.1506 23.8761 45.1583 23.8349C45.1598 23.8271 45.1605 23.8193 45.1618 23.8114C45.1671 23.7785 45.1707 23.745 45.1725 23.7111C45.1731 23.7004 45.1739 23.6898 45.1741 23.679C45.1742 23.6722 45.1751 23.6658 45.1751 23.6592V17.3181C45.1751 16.2125 44.2757 15.313 43.17 15.313H38.0562C39.297 14.038 41.016 13.2905 42.8408 13.2905C46.5197 13.2905 49.5127 16.2834 49.5127 19.9623C49.5127 21.0104 49.277 22.0131 48.812 22.9426C48.5767 23.413 48.7671 23.9852 49.2375 24.2204C49.3744 24.2889 49.5197 24.3214 49.6629 24.3214C50.0122 24.3212 50.3485 24.1284 50.5154 23.7949C51.114 22.5985 51.4174 21.3091 51.4174 19.9624C51.4174 15.2333 47.57 11.386 42.8408 11.386C39.9181 11.386 37.2063 12.8772 35.6328 15.3131H28.6028L26.8183 14.346C26.6913 14.2772 26.6428 14.1671 26.6251 14.1079C26.6075 14.0483 26.5881 13.9296 26.657 13.8025L28.8438 9.7672C28.9491 9.57271 29.1931 9.50034 29.3875 9.60546L31.3573 10.673C32.2215 11.1413 33.2894 11.0091 34.0147 10.3432C35.3444 9.12266 36.8795 8.20644 38.5774 7.62017C39.5151 7.29656 40.145 6.41855 40.145 5.43581V3.19928C40.145 2.97813 40.3249 2.79823 40.546 2.79823H45.1359C45.3571 2.79823 45.537 2.97813 45.537 3.19928V5.43556C45.537 6.4183 46.1669 7.29605 47.1046 7.61991C48.8023 8.20618 50.3374 9.1224 51.6673 10.3429C52.3924 11.0087 53.4604 11.1411 54.3245 10.6728L56.2945 9.60533C56.4889 9.49983 56.7328 9.57232 56.8382 9.76682L59.025 13.8023C59.0939 13.9294 59.0745 14.0481 59.0568 14.1076C59.0392 14.167 58.9906 14.277 58.8635 14.3459L56.8953 15.4124C56.0322 15.8801 55.5603 16.8483 55.721 17.8215C55.8372 18.5247 55.8961 19.2449 55.8961 19.9622C55.8961 20.6795 55.8372 21.3997 55.7209 22.103C55.5602 23.0761 56.032 24.0441 56.8952 24.5119L58.8633 25.5786C58.9904 25.6474 59.0389 25.7575 59.0566 25.8167C59.0743 25.8763 59.0938 25.995 59.0248 26.1221Z" fill="#EE4C01"/>
</svg>
