<svg width="47" height="58" viewBox="0 0 47 58" fill="none" xmlns="http://www.w3.org/2000/svg">
<path fill-rule="evenodd" clip-rule="evenodd" d="M16.3126 0.316406C16.8734 0.316406 17.3282 0.771117 17.3282 1.33203V2.85547C17.3282 3.4164 16.8734 3.87109 16.3126 3.87109C15.7516 3.87109 15.2969 3.4164 15.2969 2.85547V1.33203C15.2969 0.771117 15.7516 0.316406 16.3126 0.316406ZM16.3126 5.39453C16.8734 5.39453 17.3282 5.84923 17.3282 6.41016V9.96484C17.3282 10.5258 16.8734 10.9805 16.3126 10.9805C15.7516 10.9805 15.2969 10.5258 15.2969 9.96484V6.41016C15.2969 5.84923 15.7516 5.39453 16.3126 5.39453ZM30.9149 7.96914C29.7203 7.96914 28.7519 8.93754 28.7519 10.1321C28.7519 11.3267 29.7203 12.2951 30.9149 12.2951C32.1095 12.2951 33.0779 11.3267 33.0779 10.1321C33.0779 8.93754 32.1095 7.96914 30.9149 7.96914ZM26.7206 10.1321C26.7206 7.81573 28.5985 5.93789 30.9149 5.93789C33.2313 5.93789 35.1091 7.81573 35.1091 10.1321C35.1091 12.4486 33.2313 14.3264 30.9149 14.3264C28.5985 14.3264 26.7206 12.4486 26.7206 10.1321ZM43.5495 6.59028C44.0075 6.91441 44.1157 7.54827 43.7917 8.00606L31.1994 25.7925C30.8753 26.2503 30.2415 26.3587 29.7837 26.0346C29.3259 25.7105 29.2175 25.0766 29.5416 24.6188L42.1338 6.83235C42.4579 6.37456 43.092 6.26619 43.5495 6.59028ZM22.4063 8.1875C22.9672 8.1875 23.4219 8.6422 23.4219 9.20312V27.4844H30.5313C30.9421 27.4844 31.3124 27.7318 31.4696 28.1113C31.6268 28.4909 31.5399 28.9277 31.2495 29.2181L16.7768 43.6908C16.3802 44.0875 15.7371 44.0875 15.3405 43.6908L0.867804 29.2181C0.577335 28.9277 0.490448 28.4909 0.647667 28.1113C0.804886 27.7318 1.17518 27.4844 1.586 27.4844H9.4571V13.5195C9.4571 12.9586 9.91179 12.5039 10.4727 12.5039C11.0336 12.5039 11.4883 12.9586 11.4883 13.5195V28.5C11.4883 29.0609 11.0336 29.5156 10.4727 29.5156H4.03793L16.0587 41.5364L28.0793 29.5156H22.4063C21.8454 29.5156 21.3907 29.0609 21.3907 28.5V9.20312C21.3907 8.6422 21.8454 8.1875 22.4063 8.1875ZM16.3126 13.0117C16.8734 13.0117 17.3282 13.4664 17.3282 14.0273V24.9453C17.3282 25.5062 16.8734 25.9609 16.3126 25.9609C15.7516 25.9609 15.2969 25.5062 15.2969 24.9453V14.0273C15.2969 13.4664 15.7516 13.0117 16.3126 13.0117ZM42.2101 19.9558C41.0156 19.9558 40.0472 20.9242 40.0472 22.1188C40.0472 23.3134 41.0156 24.2818 42.2101 24.2818C43.4048 24.2818 44.3732 23.3134 44.3732 22.1188C44.3732 20.9242 43.4048 19.9558 42.2101 19.9558ZM38.0159 22.1188C38.0159 19.8024 39.8938 17.9246 42.2101 17.9246C44.5265 17.9246 46.4044 19.8024 46.4044 22.1188C46.4044 24.4352 44.5265 26.3131 42.2101 26.3131C39.8938 26.3131 38.0159 24.4352 38.0159 22.1188ZM34.8477 30.2773C35.4086 30.2773 35.8633 30.732 35.8633 31.293V44.75H41.7032C42.114 44.75 42.4843 44.9975 42.6415 45.3769C42.7984 45.7565 42.7118 46.1933 42.4213 46.4838L31.2495 57.6555C30.8528 58.0522 30.2098 58.0522 29.8131 57.6555L18.6412 46.4838C18.3508 46.1933 18.2639 45.7565 18.4211 45.3769C18.5783 44.9975 18.9486 44.75 19.3594 44.75H24.9454V39.6719C24.9454 39.1109 25.4001 38.6562 25.961 38.6562C26.5219 38.6562 26.9766 39.1109 26.9766 39.6719V45.7656C26.9766 46.3266 26.5219 46.7812 25.961 46.7812H21.8114L30.5313 55.5014L39.2512 46.7812H34.8477C34.2868 46.7812 33.8321 46.3266 33.8321 45.7656V31.293C33.8321 30.732 34.2868 30.2773 34.8477 30.2773Z" fill="#EE4C01"/>
</svg>
