<svg width="65" height="42" viewBox="0 0 65 42" fill="none" xmlns="http://www.w3.org/2000/svg">
<path d="M64.3254 4.63458C63.9069 4.38659 63.3894 4.3769 62.9623 4.60983L48.0485 12.7531V7.86704C48.0442 4.06598 44.964 0.985749 41.1629 0.981445H6.88559C3.08453 0.985749 0.0043035 4.06598 0 7.86704V35.0544C0.0043035 38.8554 3.08453 41.9357 6.88559 41.94H41.1629C44.964 41.9357 48.0442 38.8554 48.0485 35.0544V30.2571L62.9628 38.4003C63.3894 38.6333 63.9075 38.6241 64.3254 38.3761C64.7439 38.1276 65 37.6774 65 37.1916V5.81857C65 5.33228 64.7434 4.88256 64.3254 4.63458ZM45.2932 35.0549C45.2911 37.3358 43.4427 39.1836 41.1619 39.1863H6.88559C4.60474 39.1836 2.75693 37.3358 2.75424 35.0549V7.86704C2.75693 5.58672 4.60474 3.73837 6.88559 3.73568H41.1629C43.4433 3.73837 45.2916 5.58672 45.2943 7.86704L45.2932 35.0549ZM62.2458 34.8709L48.0485 27.1193V15.8909L62.2458 8.13977V34.8709Z" fill="#EE4C01"/>
</svg>
