<svg width="65" height="65" viewBox="0 0 65 65" fill="none" xmlns="http://www.w3.org/2000/svg">
<g clip-path="url(#clip0_2813_543)">
<path d="M51.7746 33.4521H54.7722C55.2981 33.4521 55.7244 33.0258 55.7244 32.5C55.7244 31.9741 55.2981 31.5478 54.7722 31.5478H51.7746C51.2919 21.6642 43.3385 13.7108 33.4549 13.2281V10.2305C33.4549 9.70463 33.0286 9.27832 32.5028 9.27832C31.9769 9.27832 31.5506 9.70463 31.5506 10.2305V13.2281C21.6671 13.7108 13.7134 21.6642 13.2309 31.5478H10.2334C9.70756 31.5478 9.28125 31.9741 9.28125 32.5C9.28125 33.0258 9.70756 33.4521 10.2334 33.4521H13.2309C13.7136 43.3357 21.6671 51.2891 31.5506 51.7718V54.7694C31.5506 55.2953 31.9769 55.7216 32.5028 55.7216C33.0286 55.7216 33.4549 55.2953 33.4549 54.7694V51.7718C43.3385 51.2891 51.2919 43.3357 51.7746 33.4521ZM49.8409 31.1383C46.194 29.7639 42.9347 27.6587 40.1392 24.8633C37.3439 22.068 35.2387 18.8087 33.8643 15.1618C42.3706 15.8238 49.1791 22.6321 49.8409 31.1383ZM26.2127 38.79C23.4967 36.0739 20.3717 33.9652 16.8968 32.5C20.3717 31.0347 23.4967 28.9258 26.2127 26.2099C28.9288 23.494 31.0375 20.3691 32.5028 16.8941C33.968 20.3691 36.0767 23.494 38.7928 26.2099C41.5088 28.926 44.6338 31.0347 48.1087 32.5C44.6338 33.9652 41.5088 36.0739 38.7928 38.79C36.0767 41.506 33.9682 44.631 32.5028 48.1059C31.0375 44.631 28.9286 41.506 26.2127 38.79ZM31.1412 15.1618C29.7668 18.8087 27.6617 22.068 24.8663 24.8633C22.0709 27.6587 18.8115 29.7639 15.1646 31.1383C15.8264 22.6321 22.6349 15.8236 31.1412 15.1618ZM15.1646 33.8617C18.8115 35.236 22.0708 37.3412 24.8663 40.1366C27.6618 42.9319 29.7669 46.1913 31.1412 49.8381C22.6349 49.1763 15.8264 42.3678 15.1646 33.8617ZM33.8645 49.8381C35.2388 46.1912 37.3439 42.9319 40.1394 40.1364C42.9349 37.3411 46.1941 35.2359 49.841 33.8615C49.1791 42.3678 42.3706 49.1761 33.8645 49.8381Z" fill="#EE4C01"/>
<path d="M9.28745 17.6872C9.41402 18.0809 9.78028 18.3479 10.1939 18.3479C10.6075 18.3479 10.9738 18.0809 11.1003 17.6872C11.5993 16.1362 12.4407 14.7612 13.6014 13.6005C14.7621 12.4397 16.1371 11.5983 17.6881 11.0994C18.0817 10.9727 18.3487 10.6065 18.3487 10.1929C18.3487 9.77931 18.0817 9.41305 17.6881 9.28648C16.1371 8.78768 14.7622 7.94623 13.6014 6.7855C12.4407 5.62477 11.5993 4.24974 11.1003 2.69875C10.9738 2.30507 10.6075 2.03809 10.1939 2.03809C9.78028 2.03809 9.41402 2.30507 9.28745 2.69875C8.78853 4.24974 7.94708 5.62477 6.78635 6.7855C5.62562 7.94623 4.25071 8.78768 2.69973 9.28648C2.30604 9.41305 2.03906 9.77931 2.03906 10.1929C2.03906 10.6065 2.30604 10.9727 2.69973 11.0994C4.25071 11.5983 5.62574 12.4397 6.78635 13.6005C7.94708 14.7612 8.78853 16.1362 9.28745 17.6872ZM8.13281 8.13222C8.94684 7.31819 9.6419 6.3889 10.1938 5.38381C10.7456 6.3889 11.4407 7.31819 12.2547 8.13222C13.0688 8.94637 13.998 9.64131 15.0031 10.193C13.9979 10.7449 13.0688 11.4399 12.2547 12.254C11.4407 13.068 10.7456 13.9973 10.1938 15.0024C9.6419 13.9973 8.94684 13.068 8.13281 12.254C7.31879 11.44 6.38949 10.7449 5.3844 10.193C6.38949 9.64118 7.31879 8.94624 8.13281 8.13222Z" fill="#EE4C01"/>
<path d="M62.2976 53.9009C60.7466 53.4019 59.3716 52.5605 58.2108 51.3998C57.0501 50.239 56.2086 48.864 55.7097 47.313C55.5831 46.9193 55.2169 46.6523 54.8033 46.6523C54.3897 46.6523 54.0234 46.9193 53.8968 47.313C53.3979 48.864 52.5565 50.239 51.3957 51.3998C50.235 52.5605 48.8601 53.4019 47.3091 53.9009C46.9154 54.0274 46.6484 54.3937 46.6484 54.8073C46.6484 55.2209 46.9154 55.5872 47.3091 55.7137C48.8601 56.2125 50.235 57.054 51.3957 58.2147C52.5565 59.3755 53.3979 60.7505 53.8968 62.3015C54.0234 62.6952 54.3897 62.9621 54.8033 62.9621C55.2169 62.9621 55.5831 62.6952 55.7097 62.3015C56.2086 60.7505 57.0501 59.3755 58.2108 58.2147C59.3716 57.054 60.7466 56.2125 62.2976 55.7137C62.6912 55.5872 62.9582 55.2209 62.9582 54.8073C62.9582 54.3938 62.6912 54.0274 62.2976 53.9009ZM56.8644 56.8681C56.0503 57.6822 55.3553 58.6115 54.8034 59.6165C54.2515 58.6115 53.5565 57.6822 52.7424 56.8681C51.9283 56.054 50.9992 55.359 49.994 54.8073C50.9991 54.2554 51.9284 53.5604 52.7424 52.7463C53.5565 51.9323 54.2515 51.003 54.8034 49.9979C55.3553 51.003 56.0503 51.9323 56.8644 52.7463C57.6784 53.5604 58.6077 54.2554 59.6128 54.8073C58.6075 55.3592 57.6784 56.0541 56.8644 56.8681Z" fill="#EE4C01"/>
<path d="M31.6205 4.82432C31.6446 4.88145 31.6738 4.9373 31.7081 4.98936C31.7424 5.04141 31.783 5.08965 31.8262 5.13408C32.0039 5.31055 32.2489 5.41211 32.499 5.41211C32.5612 5.41211 32.6234 5.40576 32.6856 5.39307C32.7466 5.38164 32.8062 5.3626 32.8634 5.33975C32.9205 5.31563 32.9764 5.28643 33.0284 5.25215C33.0805 5.2166 33.1287 5.17725 33.1731 5.13408C33.2163 5.08965 33.2569 5.04141 33.2912 4.98936C33.3255 4.9373 33.3547 4.88145 33.3788 4.82432C33.4029 4.76719 33.4207 4.70752 33.4334 4.64658C33.4448 4.58437 33.4512 4.52217 33.4512 4.45996C33.4512 4.39775 33.4448 4.33555 33.4334 4.27461C33.4207 4.21367 33.4029 4.154 33.3788 4.09561C33.3547 4.03848 33.3255 3.98262 33.2912 3.93184C33.2569 3.87979 33.2163 3.83027 33.1731 3.78711C33.1287 3.74268 33.0805 3.70332 33.0284 3.66904C32.9764 3.63477 32.9205 3.6043 32.8634 3.58145C32.8062 3.55732 32.7466 3.53828 32.6856 3.52686C32.5625 3.50146 32.4368 3.50146 32.3137 3.52686C32.2527 3.53828 32.1931 3.55732 32.1347 3.58145C32.0775 3.6043 32.0229 3.63477 31.9709 3.66904C31.9188 3.70332 31.8706 3.74268 31.8262 3.78711C31.783 3.83027 31.7424 3.87979 31.7081 3.93184C31.6738 3.98262 31.6446 4.03848 31.6205 4.09561C31.5964 4.154 31.5786 4.21367 31.5659 4.27461C31.5532 4.33555 31.5469 4.39775 31.5469 4.45996C31.5469 4.52217 31.5532 4.58437 31.5659 4.64658C31.5787 4.70752 31.5964 4.76719 31.6205 4.82432Z" fill="#EE4C01"/>
<path d="M4.64658 33.4331C4.70752 33.4217 4.76719 33.4026 4.82432 33.3798C4.88271 33.3557 4.9373 33.3265 4.98936 33.2922C5.04141 33.2566 5.08965 33.2173 5.13408 33.1729C5.17725 33.1297 5.21787 33.0802 5.25215 33.0281C5.28643 32.9773 5.31563 32.9215 5.33975 32.8644C5.36387 32.8072 5.38164 32.7463 5.39434 32.6866C5.40703 32.6244 5.41211 32.5622 5.41211 32.5C5.41211 32.4378 5.40703 32.3756 5.39434 32.3134C5.38164 32.2537 5.36387 32.1928 5.33975 32.1356C5.31563 32.0785 5.28643 32.0227 5.25215 31.9719C5.21787 31.9198 5.17725 31.8703 5.13408 31.8271C4.95635 31.6494 4.71133 31.5479 4.45996 31.5479C4.20986 31.5479 3.96484 31.6494 3.78711 31.8271C3.74395 31.8703 3.70332 31.9198 3.66904 31.9719C3.63477 32.0227 3.60557 32.0785 3.58145 32.1356C3.55732 32.1928 3.53955 32.2537 3.52686 32.3134C3.51416 32.3756 3.50781 32.4378 3.50781 32.5C3.50781 32.7501 3.61064 32.9964 3.78711 33.1729C3.83154 33.2173 3.87979 33.2566 3.93184 33.2922C3.98389 33.3265 4.03848 33.3557 4.09687 33.3798C4.154 33.4026 4.21367 33.4217 4.27461 33.4331C4.33555 33.4458 4.39902 33.4521 4.45996 33.4521C4.52217 33.4521 4.58564 33.4458 4.64658 33.4331Z" fill="#EE4C01"/>
<path d="M33.3788 60.1758C33.3547 60.1187 33.3255 60.0628 33.2912 60.012C33.2569 59.9587 33.2163 59.9105 33.1731 59.866C33.1287 59.8229 33.0805 59.7835 33.0284 59.748C32.9764 59.7137 32.9205 59.6845 32.8634 59.6604C32.8062 59.6375 32.7466 59.6185 32.6856 59.607C32.3759 59.5448 32.0471 59.6451 31.8262 59.866C31.783 59.9105 31.7424 59.9587 31.7081 60.012C31.6738 60.0628 31.6446 60.1187 31.6205 60.1758C31.5964 60.2329 31.5786 60.2938 31.5659 60.3535C31.5532 60.4157 31.5469 60.4779 31.5469 60.5401C31.5469 60.6023 31.5532 60.6646 31.5659 60.7255C31.5786 60.7864 31.5964 60.8461 31.6205 60.9045C31.6446 60.9616 31.6738 61.0162 31.7081 61.0683C31.7424 61.1203 31.783 61.1698 31.8262 61.213C32.0039 61.3907 32.2489 61.4923 32.499 61.4923C32.5612 61.4923 32.6234 61.4859 32.6856 61.4732C32.7466 61.4618 32.8062 61.4428 32.8634 61.4187C32.9205 61.3958 32.9764 61.3653 33.0284 61.3311C33.0805 61.2968 33.1287 61.2574 33.1731 61.213C33.2163 61.1698 33.2569 61.1203 33.2912 61.0683C33.3255 61.0162 33.3547 60.9616 33.3788 60.9045C33.4029 60.8461 33.4207 60.7864 33.4334 60.7255C33.4448 60.6646 33.4512 60.6023 33.4512 60.5401C33.4512 60.4779 33.4448 60.4157 33.4334 60.3535C33.4208 60.2926 33.4029 60.2329 33.3788 60.1758Z" fill="#EE4C01"/>
<path d="M60.3527 31.5669C60.2918 31.5783 60.2321 31.5974 60.1737 31.6202C60.1166 31.6443 60.0607 31.6735 60.01 31.7078C59.9579 31.7434 59.9084 31.7827 59.8652 31.8271C59.8208 31.8703 59.7814 31.9198 59.7472 31.9719C59.7129 32.0227 59.6824 32.0785 59.6596 32.1356C59.6355 32.1928 59.6164 32.2537 59.605 32.3134C59.5923 32.3756 59.5859 32.4378 59.5859 32.5C59.5859 32.7501 59.6875 32.9964 59.8652 33.1729C59.9084 33.2173 59.9579 33.2566 60.01 33.2922C60.0607 33.3265 60.1166 33.3557 60.1737 33.3798C60.2321 33.4026 60.2918 33.4217 60.3527 33.4331C60.4137 33.4458 60.4759 33.4521 60.5381 33.4521C60.6003 33.4521 60.6625 33.4458 60.7247 33.4331C60.7856 33.4217 60.8453 33.4026 60.9024 33.3798C60.9596 33.3557 61.0154 33.3265 61.0675 33.2922C61.1195 33.2566 61.1678 33.2173 61.2122 33.1729C61.3887 32.9964 61.4902 32.7501 61.4902 32.5C61.4902 32.4378 61.4839 32.3756 61.4712 32.3134C61.4598 32.2537 61.4407 32.1928 61.4179 32.1356C61.3937 32.0785 61.3645 32.0227 61.3303 31.9719C61.2947 31.9198 61.2554 31.8703 61.2122 31.8271C61.1678 31.7827 61.1195 31.7434 61.0675 31.7078C61.0154 31.6735 60.9596 31.6443 60.9024 31.6202C60.8453 31.5974 60.7856 31.5783 60.7247 31.5669C60.6016 31.5415 60.4746 31.5415 60.3527 31.5669Z" fill="#EE4C01"/>
<path d="M4.72559 58.1712H6.83136V60.277C6.83136 60.8028 7.25754 61.2291 7.78351 61.2291C8.30947 61.2291 8.73565 60.8028 8.73565 60.277V58.1712H10.8414C11.3674 58.1712 11.7936 57.7449 11.7936 57.2191C11.7936 56.6932 11.3674 56.2669 10.8414 56.2669H8.73565V54.1611C8.73565 53.6353 8.30947 53.209 7.78351 53.209C7.25754 53.209 6.83136 53.6353 6.83136 54.1611V56.2669H4.72559C4.19962 56.2669 3.77344 56.6932 3.77344 57.2191C3.77344 57.7449 4.19975 58.1712 4.72559 58.1712Z" fill="#EE4C01"/>
<path d="M7.7804 51.342C8.30633 51.342 8.73268 50.9157 8.73268 50.3898C8.73268 49.8638 8.30633 49.4375 7.7804 49.4375C7.25447 49.4375 6.82812 49.8638 6.82812 50.3898C6.82812 50.9157 7.25447 51.342 7.7804 51.342Z" fill="#EE4C01"/>
<path d="M0.952275 58.1712C1.4782 58.1712 1.90455 57.7448 1.90455 57.2189C1.90455 56.693 1.4782 56.2666 0.952275 56.2666C0.426348 56.2666 0 56.693 0 57.2189C0 57.7448 0.426348 58.1712 0.952275 58.1712Z" fill="#EE4C01"/>
<path d="M7.7804 65.0003C8.30633 65.0003 8.73268 64.5739 8.73268 64.048C8.73268 63.5221 8.30633 63.0957 7.7804 63.0957C7.25447 63.0957 6.82812 63.5221 6.82812 64.048C6.82812 64.5739 7.25447 65.0003 7.7804 65.0003Z" fill="#EE4C01"/>
<path d="M14.6085 58.1712C15.1345 58.1712 15.5608 57.7448 15.5608 57.2189C15.5608 56.693 15.1345 56.2666 14.6085 56.2666C14.0826 56.2666 13.6562 56.693 13.6562 57.2189C13.6562 57.7448 14.0826 58.1712 14.6085 58.1712Z" fill="#EE4C01"/>
<path d="M54.1631 8.7337H56.2689V10.8395C56.2689 11.3653 56.695 11.7916 57.221 11.7916C57.747 11.7916 58.1732 11.3653 58.1732 10.8395V8.7337H60.2789C60.8049 8.7337 61.2311 8.30739 61.2311 7.78155C61.2311 7.25571 60.8049 6.8294 60.2789 6.8294H58.1732V4.72363C58.1732 4.19779 57.747 3.77148 57.221 3.77148C56.695 3.77148 56.2689 4.19779 56.2689 4.72363V6.8294H54.1631C53.6371 6.8294 53.2109 7.25571 53.2109 7.78155C53.2109 8.30739 53.6371 8.7337 54.1631 8.7337Z" fill="#EE4C01"/>
<path d="M57.2179 1.90455C57.7438 1.90455 58.1702 1.4782 58.1702 0.952275C58.1702 0.426348 57.7438 0 57.2179 0C56.692 0 56.2656 0.426348 56.2656 0.952275C56.2656 1.4782 56.692 1.90455 57.2179 1.90455Z" fill="#EE4C01"/>
<path d="M50.3898 8.73365C50.9157 8.73365 51.342 8.3073 51.342 7.78138C51.342 7.25545 50.9157 6.8291 50.3898 6.8291C49.8638 6.8291 49.4375 7.25545 49.4375 7.78138C49.4375 8.3073 49.8638 8.73365 50.3898 8.73365Z" fill="#EE4C01"/>
<path d="M57.2179 15.5628C57.7438 15.5628 58.1702 15.1364 58.1702 14.6105C58.1702 14.0846 57.7438 13.6582 57.2179 13.6582C56.692 13.6582 56.2656 14.0846 56.2656 14.6105C56.2656 15.1364 56.692 15.5628 57.2179 15.5628Z" fill="#EE4C01"/>
<path d="M64.046 8.73365C64.572 8.73365 64.9983 8.3073 64.9983 7.78138C64.9983 7.25545 64.572 6.8291 64.046 6.8291C63.5201 6.8291 63.0938 7.25545 63.0938 7.78138C63.0938 8.3073 63.5201 8.73365 64.046 8.73365Z" fill="#EE4C01"/>
</g>
<defs>
<clipPath id="clip0_2813_543">
<rect width="65" height="65" fill="white"/>
</clipPath>
</defs>
</svg>
