<svg width="65" height="65" viewBox="0 0 65 65" fill="none" xmlns="http://www.w3.org/2000/svg">
<path d="M32.4996 33.5411C31.815 33.5411 31.2578 32.9838 31.2578 32.2991C31.2578 31.6143 31.815 31.0571 32.4996 31.0571C33.1845 31.0571 33.7417 31.6143 33.7417 32.2991C33.7417 32.9838 33.1845 33.5411 32.4996 33.5411Z" fill="#EE4C01"/>
<path d="M16.3437 33.5411C15.6588 33.5411 15.1016 32.9838 15.1016 32.2991C15.1016 31.6143 15.6588 31.0571 16.3437 31.0571C17.0283 31.0571 17.5855 31.6143 17.5855 32.2991C17.5855 32.9838 17.0283 33.5411 16.3437 33.5411Z" fill="#EE4C01"/>
<path d="M48.6562 33.5411C47.9713 33.5411 47.4141 32.9838 47.4141 32.2991C47.4141 31.6143 47.9713 31.0571 48.6562 31.0571C49.3408 31.0571 49.898 31.6143 49.898 32.2991C49.898 32.9838 49.3408 33.5411 48.6562 33.5411Z" fill="#EE4C01"/>
<path d="M4.49598 30.802C4.45343 30.802 4.41028 30.7999 4.36653 30.7953C3.6828 30.7245 3.18566 30.1131 3.25677 29.4294C4.6783 15.6857 15.6853 4.6787 29.429 3.25687C30.117 3.18515 30.7241 3.68351 30.7953 4.36662C30.8664 5.05065 30.3692 5.66205 29.6855 5.73285C17.1075 7.03435 7.03395 17.1075 5.73275 29.6853C5.66651 30.3256 5.12622 30.802 4.49598 30.802Z" fill="#EE4C01"/>
<path d="M29.5585 61.7501C29.5159 61.7501 29.4728 61.7479 29.429 61.7434C15.6859 60.3216 4.67891 49.3115 3.25677 35.5638C3.18566 34.8801 3.6828 34.2687 4.36653 34.1979C5.06058 34.1283 5.66225 34.6243 5.73275 35.308C7.03456 47.8897 17.1081 57.9662 29.6855 59.2674C30.3692 59.3382 30.8664 59.9496 30.7953 60.6336C30.729 61.2736 30.1887 61.7501 29.5585 61.7501Z" fill="#EE4C01"/>
<path d="M35.4937 61.7428C34.8646 61.7428 34.3244 61.2679 34.2569 60.6285C34.1852 59.9448 34.6811 59.3322 35.3648 59.2604C47.9155 57.9395 57.9696 47.866 59.2702 35.3074C59.3407 34.6237 59.9423 34.1268 60.6364 34.1976C61.3201 34.2684 61.8173 34.8801 61.7462 35.5639C60.3252 49.2857 49.3395 60.2927 35.6249 61.7361C35.5812 61.7407 35.5368 61.7428 35.4937 61.7428Z" fill="#EE4C01"/>
<path d="M60.5069 30.8019C59.8767 30.8019 59.3364 30.3257 59.2702 29.6855C57.9708 17.1311 47.9167 7.06036 35.3648 5.73971C34.6811 5.66769 34.1852 5.05508 34.2569 4.37136C34.3286 3.68824 34.9315 3.19201 35.6249 3.26373C49.3407 4.70714 60.3264 15.7114 61.7462 29.429C61.8173 30.1127 61.3201 30.7244 60.6364 30.7952C60.5926 30.7998 60.5495 30.8019 60.5069 30.8019Z" fill="#EE4C01"/>
</svg>
