<svg width="65" height="65" viewBox="0 0 65 65" fill="none" xmlns="http://www.w3.org/2000/svg">
<path d="M45.5114 39.9073C45.2659 39.9085 45.0279 39.8224 44.84 39.6644L37.0257 33.3359C36.9028 33.234 36.8039 33.1063 36.736 32.9618C36.6681 32.8174 36.6328 32.6598 36.6328 32.5001V15.0001C36.6328 14.716 36.7457 14.4435 36.9466 14.2425C37.1476 14.0416 37.4201 13.9287 37.7042 13.9287C37.9884 13.9287 38.2609 14.0416 38.4619 14.2425C38.6628 14.4435 38.7757 14.716 38.7757 15.0001V31.993L46.19 38.0001C46.3663 38.1412 46.4936 38.3345 46.5536 38.5522C46.6136 38.7699 46.6032 39.0011 46.524 39.2126C46.4448 39.4241 46.3008 39.6052 46.1125 39.7299C45.9242 39.8547 45.7013 39.9168 45.4757 39.9073H45.5114Z" fill="#EE4C01"/>
<path d="M26.9511 44.2H15.0011C14.717 44.2 14.4444 44.0871 14.2435 43.8862C14.0426 43.6852 13.9297 43.4127 13.9297 43.1286C13.9297 42.8444 14.0426 42.5719 14.2435 42.3709C14.4444 42.17 14.717 42.0571 15.0011 42.0571H26.9511C27.2353 42.0571 27.5078 42.17 27.7087 42.3709C27.9097 42.5719 28.0225 42.8444 28.0225 43.1286C28.0225 43.4127 27.9097 43.6852 27.7087 43.8862C27.5078 44.0871 27.2353 44.2 26.9511 44.2Z" fill="#EE4C01"/>
<path d="M22.1005 32.7H1.9933C1.70914 32.7 1.43662 32.5871 1.23569 32.3862C1.03476 32.1852 0.921875 31.9127 0.921875 31.6286C0.921875 31.3444 1.03476 31.0719 1.23569 30.8709C1.43662 30.67 1.70914 30.5571 1.9933 30.5571H22.1005C22.3846 30.5571 22.6571 30.67 22.8581 30.8709C23.059 31.0719 23.1719 31.3444 23.1719 31.6286C23.1719 31.9127 23.059 32.1852 22.8581 32.3862C22.6571 32.5871 22.3846 32.7 22.1005 32.7Z" fill="#EE4C01"/>
<path d="M14.4487 21.0716H7.3058C7.02164 21.0716 6.74912 20.9587 6.54819 20.7578C6.34726 20.5568 6.23438 20.2843 6.23438 20.0001C6.23438 19.716 6.34726 19.4435 6.54819 19.2425C6.74912 19.0416 7.02164 18.9287 7.3058 18.9287H14.4487C14.7328 18.9287 15.0053 19.0416 15.2063 19.2425C15.4072 19.4435 15.5201 19.716 15.5201 20.0001C15.5201 20.2843 15.4072 20.5568 15.2063 20.7578C15.0053 20.9587 14.7328 21.0716 14.4487 21.0716Z" fill="#EE4C01"/>
<path d="M37.7042 52.8571C37.4201 52.8571 37.1476 52.7443 36.9466 52.5433C36.7457 52.3424 36.6328 52.0699 36.6328 51.7857V51.5714C36.6328 51.2873 36.7457 51.0148 36.9466 50.8138C37.1476 50.6129 37.4201 50.5 37.7042 50.5C37.9884 50.5 38.2609 50.6129 38.4619 50.8138C38.6628 51.0148 38.7757 51.2873 38.7757 51.5714V51.7857C38.7757 52.0699 38.6628 52.3424 38.4619 52.5433C38.2609 52.7443 37.9884 52.8571 37.7042 52.8571Z" fill="#EE4C01"/>
<path d="M57.6607 33.5716H57.4464C57.1623 33.5716 56.8897 33.4587 56.6888 33.2578C56.4879 33.0568 56.375 32.7843 56.375 32.5001C56.375 32.216 56.4879 31.9435 56.6888 31.7425C56.8897 31.5416 57.1623 31.4287 57.4464 31.4287H57.6607C57.9449 31.4287 58.2174 31.5416 58.4183 31.7425C58.6193 31.9435 58.7321 32.216 58.7321 32.5001C58.7321 32.7843 58.6193 33.0568 58.4183 33.2578C58.2174 33.4587 57.9449 33.5716 57.6607 33.5716Z" fill="#EE4C01"/>
<path d="M12.7231 37.043C12.4651 37.0436 12.2157 36.9505 12.0213 36.781C11.8268 36.6115 11.7006 36.3772 11.6659 36.1216C11.5012 34.9216 11.4224 33.7114 11.4302 32.5001C11.4302 32.216 11.5431 31.9435 11.744 31.7425C11.945 31.5416 12.2175 31.4287 12.5016 31.4287C12.7858 31.4287 13.0583 31.5416 13.2593 31.7425C13.4602 31.9435 13.5731 32.216 13.5731 32.5001C13.5732 33.6112 13.6496 34.721 13.8016 35.8216C13.8206 35.963 13.8111 36.1068 13.7738 36.2445C13.7364 36.3821 13.6719 36.511 13.5841 36.6234C13.4963 36.7359 13.3869 36.8297 13.2623 36.8992C13.1378 36.9688 13.0006 37.0129 12.8588 37.0287L12.7231 37.043Z" fill="#EE4C01"/>
<path d="M37.7075 58.7929C34.1737 58.8053 30.6742 58.0994 27.4216 56.7181C24.1689 55.3367 21.2309 53.3087 18.786 50.7572C18.623 50.5476 18.5436 50.2849 18.5632 50.0201C18.5829 49.7553 18.7001 49.5072 18.8923 49.324C19.0844 49.1407 19.3378 49.0353 19.6032 49.0283C19.8687 49.0212 20.1273 49.113 20.3289 49.2857C22.5747 51.6277 25.2735 53.4883 28.2612 54.7543C31.2488 56.0204 34.4627 56.6653 37.7075 56.65C42.0118 56.6488 46.2377 55.4972 49.9475 53.3144C53.6574 51.1315 56.7164 47.9968 58.8079 44.2348C60.8995 40.4727 61.9475 36.22 61.8436 31.9169C61.7397 27.6138 60.4875 23.4166 58.2168 19.7599C55.946 16.1032 52.7392 13.1199 48.9283 11.1187C45.1174 9.11753 40.8409 8.17126 36.5415 8.37785C32.2421 8.58445 28.076 9.93639 24.4746 12.2937C20.8731 14.6511 17.9671 17.9282 16.0575 21.7857C15.9305 22.0405 15.7076 22.2345 15.4377 22.3249C15.1678 22.4153 14.873 22.3948 14.6182 22.2679C14.3634 22.141 14.1694 21.918 14.079 21.6481C13.9886 21.3782 14.0091 21.0834 14.136 20.8286C16.2153 16.6268 19.3798 13.0571 23.3021 10.4892C27.2243 7.9213 31.7617 6.44848 36.4444 6.22325C41.1271 5.99801 45.7849 7.02855 49.9355 9.20817C54.0861 11.3878 57.5786 14.6372 60.0515 18.6201C62.5244 22.6029 63.8877 27.1744 64.0003 31.8612C64.113 36.5479 62.9707 41.1796 60.692 45.2766C58.4132 49.3736 55.0808 52.787 51.0396 55.1635C46.9985 57.5399 42.3956 58.793 37.7075 58.7929Z" fill="#EE4C01"/>
<path d="M8.95893 44.2H7.00893C6.72477 44.2 6.45225 44.0871 6.25131 43.8862C6.05038 43.6852 5.9375 43.4127 5.9375 43.1286C5.9375 42.8444 6.05038 42.5719 6.25131 42.3709C6.45225 42.17 6.72477 42.0571 7.00893 42.0571H8.95893C9.24309 42.0571 9.51561 42.17 9.71654 42.3709C9.91747 42.5719 10.0304 42.8444 10.0304 43.1286C10.0304 43.4127 9.91747 43.6852 9.71654 43.8862C9.51561 44.0871 9.24309 44.2 8.95893 44.2Z" fill="#EE4C01"/>
<path d="M13.6988 25.4855C13.5184 25.4834 13.3414 25.4361 13.184 25.3479C13.0266 25.2596 12.8939 25.1334 12.798 24.9806C12.702 24.8278 12.6459 24.6533 12.6348 24.4733C12.6238 24.2932 12.658 24.1132 12.7345 23.9498L14.2202 20.8426C14.2807 20.7155 14.3657 20.6016 14.4702 20.5073C14.5747 20.4131 14.6968 20.3403 14.8295 20.2932C14.9621 20.2461 15.1028 20.2256 15.2434 20.2329C15.3839 20.2401 15.5217 20.275 15.6488 20.3355C15.7759 20.396 15.8898 20.481 15.9841 20.5855C16.0784 20.69 16.1511 20.8121 16.1982 20.9448C16.2453 21.0774 16.2658 21.218 16.2586 21.3586C16.2513 21.4992 16.2164 21.637 16.1559 21.7641L14.6702 24.8784C14.5817 25.0606 14.4436 25.2142 14.2718 25.3216C14.1 25.4289 13.9014 25.4858 13.6988 25.4855Z" fill="#EE4C01"/>
</svg>
