<svg width="65" height="65" viewBox="0 0 65 65" fill="none" xmlns="http://www.w3.org/2000/svg">
<path d="M2.69316 26.816C1.36456 27.0315 0.336793 28.0967 0.168993 29.4323C-0.054099 31.4551 -0.0563449 33.4962 0.162469 35.5195C0.314976 36.8757 1.34905 37.9659 2.6953 38.1899L6.14243 38.7543C6.80422 41.5731 7.92139 44.2651 9.44977 46.7243L7.42077 49.5583C6.61225 50.6545 6.63182 52.1547 7.46847 53.2297C8.11421 54.0197 8.80135 54.7752 9.52678 55.4928C10.192 56.1591 10.9275 56.8286 11.8104 57.5706C12.8768 58.3906 14.3565 58.4077 15.4417 57.6128L18.2897 55.5697C20.7464 57.0979 23.4358 58.2153 26.2522 58.8781L26.8177 62.3307C27.0327 63.6597 28.0981 64.688 29.4339 64.8559C30.0515 64.9252 30.6787 64.974 31.3102 65H31.4023C31.9669 64.9995 32.5099 64.7823 32.9189 64.3933C33.3443 63.9869 33.5843 63.4238 33.583 62.8355V54.1537C33.5765 52.9936 32.6609 52.0427 31.5019 51.9925C21.133 51.4511 13.0033 42.8859 13.0033 32.503C13.0033 22.12 21.133 13.5548 31.5019 13.0134C32.6627 12.9625 33.5789 12.0088 33.583 10.8468V2.1694C33.5847 1.58044 33.3442 1.01683 32.9178 0.610534C32.4921 0.192905 31.9111 -0.0275136 31.3155 0.00275248C30.685 0.0276712 30.0599 0.0731238 29.4185 0.138148C28.0834 0.310226 27.0232 1.34483 26.8186 2.67526L26.2542 6.12452C23.4378 6.78781 20.7484 7.90562 18.2917 9.43411L15.4437 7.39527C14.3485 6.59434 12.8544 6.61819 11.7854 7.45377C11 8.09674 10.2482 8.7797 9.53319 9.50021C8.79622 10.2206 8.10245 10.9839 7.45542 11.786C6.62882 12.8538 6.60765 14.3394 7.40344 15.4303L9.4455 18.2817C7.91839 20.7406 6.80272 23.4323 6.14243 26.2506L2.69316 26.816ZM8.10224 27.4205C8.73205 24.3607 9.94034 21.4494 11.6621 18.8428C11.9088 18.468 11.8989 17.9798 11.6372 17.6154L9.16615 14.165C8.93771 13.8636 8.93108 13.4488 9.14989 13.1402C9.74366 12.4043 10.3807 11.7043 11.0576 11.0439C11.7151 10.3797 12.4057 9.74907 13.1267 9.15455C13.4371 8.91799 13.8672 8.91799 14.1776 9.15455L17.6226 11.6267C17.9875 11.8878 18.4756 11.8968 18.85 11.6495C21.4544 9.92714 24.3641 8.71842 27.4224 8.08861C27.862 7.99803 28.2003 7.64553 28.2728 7.20245L28.9542 3.03054C29.0032 2.65633 29.2905 2.35795 29.6627 2.29495C30.2357 2.23538 30.8165 2.19314 31.4166 2.16929L31.3928 10.8477C19.8593 11.4368 10.8119 20.9634 10.8183 32.512C10.8246 44.0605 19.8825 53.5771 31.4166 54.1535L31.4015 62.8353C30.8197 62.8114 30.2434 62.766 29.6747 62.702C29.3008 62.6474 29.0078 62.3526 28.9554 61.9783L28.2728 57.8042C28.2003 57.3612 27.8621 57.0088 27.4224 56.9181C24.3641 56.2877 21.4544 55.0788 18.85 53.3561C18.4754 53.109 17.9874 53.1186 17.6226 53.3799L14.1744 55.8543C13.8803 56.0829 13.4717 56.0939 13.1658 55.8813C12.3695 55.2108 11.6794 54.5814 11.0576 53.9606C10.3934 53.3042 9.76313 52.6144 9.16936 51.8936C8.93568 51.5815 8.93568 51.1528 9.16936 50.8406L11.6382 47.3935C11.8996 47.0288 11.9091 46.5407 11.6621 46.166C9.94023 43.5599 8.73194 40.6488 8.10224 37.5894C8.01176 37.15 7.6598 36.8119 7.21714 36.7389L3.0463 36.0553C2.65808 35.9912 2.36002 35.6763 2.31724 35.2851C2.11436 33.4217 2.1165 31.5417 2.32377 29.6789C2.37767 29.3047 2.67199 29.0108 3.0463 28.9575L7.21596 28.2749C7.66033 28.2022 8.01315 27.862 8.10224 27.4205Z" fill="#EE4C01"/>
<path d="M61.7474 29.2527C60.3751 29.2584 59.1543 30.1255 58.6967 31.4194H33.581V28.1694H50.9142C52.7091 28.1694 54.1641 26.7143 54.1641 24.9194V19.3035C55.6564 18.776 56.5516 17.2499 56.2839 15.6899C56.0162 14.1299 54.6635 12.9895 53.0807 12.9895C51.4979 12.9895 50.1452 14.1299 49.8775 15.6899C49.6099 17.2499 50.505 18.776 51.9973 19.3035V24.9194C51.9973 25.5177 51.5123 26.0028 50.914 26.0028H33.581V22.7528H45.4975C46.0958 22.7528 46.5808 22.2678 46.5808 21.6694C46.5808 21.0711 46.0958 20.586 45.4975 20.586H33.581V18.4194H40.081C41.8759 18.4194 43.331 16.9644 43.331 15.1694V8.47031C44.8233 7.94274 45.7185 6.41671 45.4508 4.85667C45.1831 3.29663 43.8304 2.15625 42.2476 2.15625C40.6648 2.15625 39.3121 3.29663 39.0444 4.85667C38.7767 6.41671 39.6719 7.94274 41.1642 8.47031V15.1696C41.1642 15.7679 40.6792 16.253 40.0809 16.253H33.2949C32.9222 15.5603 32.1784 15.15 31.3937 15.2044C22.2646 15.7826 15.1562 23.3554 15.1562 32.5029C15.1562 41.6503 22.2646 49.2231 31.3937 49.8014H31.5205C32.2605 49.8076 32.9434 49.404 33.2949 48.7528H40.0809C40.6791 48.7528 41.1642 49.2378 41.1642 49.8361V56.5354C39.6719 57.063 38.7767 58.589 39.0444 60.1491C39.3121 61.7091 40.6648 62.8495 42.2476 62.8495C43.8304 62.8495 45.1831 61.7091 45.4508 60.1491C45.7185 58.589 44.8233 57.063 43.331 56.5354V49.8361C43.331 48.0412 41.876 46.5861 40.081 46.5861H33.581V44.4195H45.4975C46.0958 44.4195 46.5808 43.9345 46.5808 43.3362C46.5808 42.7379 46.0958 42.2528 45.4975 42.2528H33.581V39.0029H50.9142C51.5125 39.0029 51.9976 39.4879 51.9976 40.0862V45.7021C50.5052 46.2297 49.6101 47.7557 49.8778 49.3157C50.1454 50.8758 51.4981 52.0161 53.0809 52.0161C54.6638 52.0161 56.0164 50.8758 56.2841 49.3157C56.5518 47.7557 55.6567 46.2297 54.1643 45.7021V40.0862C54.1643 38.2913 52.7093 36.8363 50.9144 36.8363H33.581V33.586H58.6967C59.2503 35.1402 60.882 36.0314 62.4889 35.6573C64.0957 35.2832 65.166 33.7629 64.9763 32.1241C64.7864 30.4854 63.3971 29.2498 61.7474 29.2527ZM53.0808 15.1696C53.6791 15.1696 54.1641 15.6546 54.1641 16.253C54.1641 16.8513 53.6791 17.3363 53.0808 17.3363C52.4826 17.3363 51.9976 16.8513 51.9976 16.253C51.9976 15.6546 52.4825 15.1696 53.0808 15.1696ZM42.2476 4.33637C42.8459 4.33637 43.331 4.82138 43.331 5.41975C43.331 6.01812 42.846 6.50302 42.2476 6.50302C41.6492 6.50302 41.1643 6.01801 41.1643 5.41975C41.1643 4.82148 41.6492 4.33637 42.2476 4.33637ZM42.2476 60.6691C41.6493 60.6691 41.1643 60.1841 41.1643 59.5858C41.1643 58.9874 41.6493 58.5024 42.2476 58.5024C42.8459 58.5024 43.331 58.9874 43.331 59.5858C43.331 60.1841 42.8459 60.6691 42.2476 60.6691ZM53.0808 49.8359C52.4826 49.8359 51.9976 49.3509 51.9976 48.7525C51.9976 48.1542 52.4826 47.6693 53.0808 47.6693C53.6791 47.6693 54.1641 48.1543 54.1641 48.7525C54.1641 49.3508 53.6791 49.8359 53.0808 49.8359ZM17.3311 32.5028C17.3402 24.5505 23.4831 17.9523 31.4144 17.3753V47.6303C23.4831 47.0533 17.3402 40.4549 17.3311 32.5028ZM61.7474 33.586C61.1492 33.586 60.664 33.101 60.664 32.5027C60.664 31.9043 61.149 31.4194 61.7474 31.4194C62.3458 31.4194 62.8308 31.9044 62.8308 32.5027C62.8308 33.1009 62.3457 33.586 61.7474 33.586Z" fill="#EE4C01"/>
</svg>
