<svg width="65" height="65" viewBox="0 0 65 65" fill="none" xmlns="http://www.w3.org/2000/svg">
<g clip-path="url(#clip0_2813_505)">
<path d="M3.89844 34.8265C3.89844 36.975 5.64645 38.7229 7.79476 38.7229C9.94306 38.7229 11.6911 36.9748 11.6911 34.8265C11.6911 34.538 11.6586 34.2569 11.5988 33.9861L17.1967 31.1825C17.9118 32.011 18.9682 32.5368 20.1458 32.5368C23.1684 32.5368 25.0413 29.226 23.4879 26.6402L30.5024 19.614C32.1107 20.5764 34.1955 20.2592 35.446 18.8104L41.0439 21.6142C40.5042 24.0589 42.3769 26.3509 44.8481 26.3509C48.2175 26.3509 49.9997 22.3355 47.7329 19.8383L55.8987 7.56882C58.4372 8.47044 61.0955 6.57186 61.0955 3.89645C61.0954 1.74802 59.3475 0 57.1991 0C55.0506 0 53.3028 1.74802 53.3028 3.89632C53.3028 4.9023 53.686 5.82055 54.3143 6.51257L46.1486 18.7821C44.6522 18.2505 42.9643 18.6781 41.8989 19.9125L36.3011 17.1087C36.3609 16.8379 36.3934 16.557 36.3934 16.2684C36.3934 14.12 34.6453 12.3721 32.497 12.3721C29.4756 12.3721 27.601 15.682 29.1549 18.2687L22.1406 25.2949C19.2367 23.557 15.6033 26.1356 16.342 29.4808L10.7441 32.2844C8.39651 29.5651 3.89844 31.2197 3.89844 34.8265ZM57.1991 1.9043C58.2975 1.9043 59.1911 2.79792 59.1911 3.89632C59.1911 4.99472 58.2975 5.88834 57.1991 5.88834C56.1007 5.88834 55.2071 4.99472 55.2071 3.89632C55.2071 2.79792 56.1005 1.9043 57.1991 1.9043ZM44.8481 20.4624C45.9465 20.4624 46.8401 21.3561 46.8401 22.4545C46.8401 23.5529 45.9465 24.4465 44.8481 24.4465C43.7497 24.4465 42.856 23.5529 42.856 22.4545C42.856 21.3561 43.7495 20.4624 44.8481 20.4624ZM32.4969 14.2764C33.5953 14.2764 34.4889 15.17 34.4889 16.2684C34.4889 17.3668 33.5953 18.2604 32.4969 18.2604C31.3985 18.2604 30.5049 17.3668 30.5049 16.2684C30.5049 15.17 31.3984 14.2764 32.4969 14.2764ZM20.1458 26.6483C21.2442 26.6483 22.1378 27.542 22.1378 28.6404C22.1378 29.7388 21.2442 30.6324 20.1458 30.6324C19.0474 30.6324 18.1538 29.7388 18.1538 28.6404C18.1538 27.542 19.0474 26.6483 20.1458 26.6483ZM7.79476 36.8187C6.69636 36.8187 5.80273 35.9251 5.80273 34.8267C5.80273 33.7283 6.69636 32.8346 7.79476 32.8346C8.89315 32.8346 9.78678 33.7283 9.78678 34.8267C9.78678 35.9251 8.89328 36.8187 7.79476 36.8187Z" fill="#EE4C01"/>
<path d="M63.3126 63.0958H62.1344V42.1731C62.1344 41.6471 61.7082 41.2209 61.1822 41.2209C60.6562 41.2209 60.2301 41.6471 60.2301 42.1731V63.0958H54.1733V15.6597H60.2301V37.7298C60.2301 38.2558 60.6562 38.682 61.1822 38.682C61.7082 38.682 62.1344 38.2558 62.1344 37.7298V15.5038C62.1344 14.5397 61.3499 13.7554 60.386 13.7554H54.0175C53.0534 13.7554 52.2691 14.5398 52.2691 15.5038V63.0958H49.7834V34.1487C49.7834 33.1847 48.999 32.4003 48.0351 32.4003H47.0725C46.5466 32.4003 46.1204 32.8265 46.1204 33.3525C46.1204 33.8785 46.5466 34.3046 47.0725 34.3046H47.8792V63.0958H41.8225V34.3046H42.6292C43.1551 34.3046 43.5813 33.8785 43.5813 33.3525C43.5813 32.8265 43.1551 32.4003 42.6292 32.4003H41.6665C40.7024 32.4003 39.9182 33.1848 39.9182 34.1487V63.0958H37.4325V27.9087C37.4325 26.9447 36.648 26.1605 35.6841 26.1605H29.3156C28.3515 26.1605 27.5673 26.9448 27.5673 27.9087V63.0958H25.0816V40.3348C25.0816 39.3707 24.2971 38.5864 23.3332 38.5864H16.9647C16.0006 38.5864 15.2163 39.3708 15.2163 40.3348V63.0958H12.7306V46.5207C12.7306 45.5566 11.9462 44.7724 10.9823 44.7724H4.61317C3.64909 44.7724 2.86478 45.5567 2.86478 46.5207V63.0958H1.68652C1.16056 63.0958 0.734375 63.522 0.734375 64.048C0.734375 64.5739 1.16056 65.0001 1.68652 65.0001H63.3127C63.8387 65.0001 64.2649 64.5739 64.2649 64.048C64.2649 63.522 63.8386 63.0958 63.3126 63.0958ZM4.76907 63.0958V46.6767H10.8258V63.0958H4.76907ZM17.1201 63.0958V40.4906H23.1769V63.0958H17.1201ZM29.4712 63.0958V28.0648H35.5279V63.0958H29.4712Z" fill="#EE4C01"/>
</g>
<defs>
<clipPath id="clip0_2813_505">
<rect width="65" height="65" fill="white"/>
</clipPath>
</defs>
</svg>
