<svg width="46" height="58" viewBox="0 0 46 58" fill="none" xmlns="http://www.w3.org/2000/svg">
<path d="M34.7893 46.25H11.2034C10.6399 46.25 10.1253 46.5107 9.79226 46.9648C9.45826 47.4194 9.36456 47.9887 9.53446 48.5268L12.0609 56.5278C12.2923 57.2588 12.9632 57.75 13.7289 57.75H32.2641C33.0297 57.75 33.7006 57.2588 33.9321 56.5273L36.4585 48.5268C36.6284 47.9887 36.5347 47.4194 36.2007 46.9648C35.8677 46.5107 35.3527 46.25 34.7893 46.25ZM35.0286 48.0752L32.5022 56.0747C32.469 56.1797 32.3733 56.25 32.2639 56.25H13.7287C13.6193 56.25 13.5236 56.1797 13.4904 56.0752L10.964 48.0752C10.9318 47.9702 10.9738 47.8901 11.0011 47.8521C11.0294 47.814 11.0929 47.75 11.2032 47.75H34.7891C34.8995 47.75 34.9629 47.814 34.9912 47.8521C35.0195 47.8902 35.0618 47.9703 35.0286 48.0752ZM45.0442 18.9658C44.7102 18.5112 44.1965 18.25 43.6321 18.25H2.36056C1.79606 18.25 1.28246 18.5112 0.948464 18.9658C0.615464 19.4209 0.522664 19.9902 0.692564 20.5273L3.21796 28.5263C3.44846 29.2582 4.11936 29.7499 4.88686 29.7499H41.1057C41.8733 29.7499 42.5432 29.2587 42.7737 28.5272L45.3001 20.5277C45.47 19.9901 45.3772 19.4209 45.0442 18.9658ZM43.8704 20.0752L41.344 28.0752L41.343 28.0762C41.3108 28.1802 41.2151 28.25 41.1057 28.25H4.88686C4.77746 28.25 4.68176 28.1802 4.64856 28.0752L2.12216 20.0747C2.08896 19.9697 2.13096 19.8901 2.15926 19.852C2.18656 19.8139 2.25006 19.7499 2.36046 19.7499H43.632C43.7424 19.7499 43.8058 19.8139 43.8332 19.852C43.8615 19.8901 43.9036 19.9698 43.8704 20.0752ZM39.2112 32.25H6.78146C6.21796 32.25 5.70436 32.5107 5.37126 32.9648C5.03726 33.4194 4.94356 33.9887 5.11346 34.5273L7.63886 42.5263C7.86936 43.2582 8.54026 43.7499 9.30776 43.7499H36.6848C37.4524 43.7499 38.1223 43.2587 38.3528 42.5272L40.8792 34.5267C41.0491 33.9886 40.9554 33.4193 40.6214 32.9647C40.2884 32.5106 39.7747 32.25 39.2112 32.25ZM39.4495 34.0752L36.9231 42.0752L36.9221 42.0762C36.8899 42.1787 36.7922 42.25 36.6848 42.25H9.30776C9.20036 42.25 9.10266 42.1787 9.06946 42.0752L6.54306 34.0757C6.50986 33.9702 6.55286 33.8902 6.58016 33.8521C6.60846 33.814 6.67196 33.75 6.78136 33.75H39.2111C39.3205 33.75 39.384 33.814 39.4123 33.8521C39.4396 33.8902 39.4827 33.9703 39.4495 34.0752ZM18.2238 8.2876C17.9308 7.9946 17.9308 7.52 18.2238 7.2271C18.5168 6.9342 18.9914 6.9341 19.2843 7.2271L22.2462 10.1894V1C22.2462 0.5859 22.5821 0.25 22.9962 0.25C23.4103 0.25 23.7462 0.5859 23.7462 1V10.1894L26.7081 7.2271C27.0011 6.9341 27.4757 6.9341 27.7686 7.2271C28.0615 7.5201 28.0616 7.9947 27.7686 8.2876L24.2334 11.8232C23.8926 12.1645 23.4443 12.3349 22.9961 12.3349C22.5479 12.3349 22.0996 12.1645 21.7588 11.8232L18.2238 8.2876ZM35.2238 8.2876C34.9308 7.9946 34.9308 7.52 35.2238 7.2271C35.5168 6.9342 35.9914 6.9341 36.2843 7.2271L39.2462 10.1894V1C39.2462 0.5859 39.5821 0.25 39.9962 0.25C40.4103 0.25 40.7462 0.5859 40.7462 1V10.1894L43.7081 7.2271C44.0011 6.9341 44.4757 6.9341 44.7686 7.2271C45.0615 7.5201 45.0616 7.9947 44.7686 8.2876L41.2334 11.8232C40.8926 12.1645 40.4443 12.3349 39.9961 12.3349C39.5479 12.3349 39.0996 12.1645 38.7588 11.8232L35.2238 8.2876ZM1.22376 8.2876C0.930764 7.9946 0.930764 7.52 1.22376 7.2271C1.51676 6.9342 1.99136 6.9341 2.28426 7.2271L5.24616 10.1894V1C5.24616 0.5859 5.58206 0.25 5.99616 0.25C6.41026 0.25 6.74616 0.5859 6.74616 1V10.1894L9.70806 7.2271C10.0011 6.9341 10.4757 6.9341 10.7686 7.2271C11.0615 7.5201 11.0616 7.9947 10.7686 8.2876L7.23336 11.8232C6.89256 12.1645 6.44426 12.3349 5.99606 12.3349C5.54786 12.3349 5.09956 12.1645 4.75876 11.8232L1.22376 8.2876Z" fill="#EE4C01"/>
</svg>
